# xmcd
#
# Track frame offsets: 
#        150
#        19170
#        40305
#        58247
#        78130
#        97362
#        112892
#        135245
#        153952
#        174510
#        192725
#        210982
#        236865
#        255710
#        273012
#
# Disc length: 3875 seconds
#
# Revision: 1
# Processed by: cddbd v1.5.2PL0 Copyright (c) Steve Scherf et al.
# Submitted via: ExactAudioCopyFreeDBPlugin 1.0
#
DISCID=ca0f210f
DTITLE=Various Artist - Night Grooves [MusicSpace.com]
DYEAR=2004
DGENRE=SMB
TTITLE0=Peabo Bryson - If Ever You're in My Arms Again
TTITLE1=Freddie Jackson - You Are My Lady
TTITLE2=Smokey Robinson - Being with You
TTITLE3=Lionel Richie and Diana Ross - Endless Love
TTITLE4=Deele - Two Occasions
TTITLE5=Dionne Warwick and Luther Vandross - How Many Times Can We Say
TTITLE5=Goodbye
TTITLE6=Jeffrey Osborne - Stay with Me Tonight
TTITLE7=Ray Parker Jr. - One in a Million You
TTITLE8=Champaign - How 'Bout Us
TTITLE9=Ray Parker Jr. - The Other Woman
TTITLE10=Dennis Edwards - Don't Look Any Further (ft Siedah Garrett)
TTITLE11=The Isley Brothers - Don't Say Goodnight (It's Time For Love)
TTITLE12=Stacy Lattimore - Love on a Two Way Street
TTITLE13=Tavares - A Penny for Your Thoughts
TTITLE14=Force MDs - Tender Love
EXTD=
EXTT0=
EXTT1=
EXTT2=
EXTT3=
EXTT4=
EXTT5=
EXTT6=
EXTT7=
EXTT8=
EXTT9=
EXTT10=
EXTT11=
EXTT12=
EXTT13=
EXTT14=
PLAYORDER=
